<?xml version="1.0" ?><svg enable-background="new 0 0 52 52" id="Layer_1" version="1.1" viewBox="0 0 52 52" xml:space="preserve" xmlns="http://www.w3.org/2000/svg" xmlns:xlink="http://www.w3.org/1999/xlink"><g><path d="M2,49c0,0.5499878,0.4499512,1,1,1h46c0.5499878,0,1-0.4500122,1-1V36H2V49z M7,39h38v2H7V39z M7,44h4v2H7V44z"/><path d="M42.1665649,8.545105h-0.8485107v3.9696655h0.9421387c0.6085815,0,1.0749512-0.1669312,1.3985596-0.5014038   c0.3236084-0.3341675,0.4851685-0.8272095,0.4851685-1.4793701C44.1439209,9.2080688,43.4849854,8.545105,42.1665649,8.545105z"/><path d="M49,2H27c-0.5500488,0-1,0.4500122-1,1v14c0,0.5499878,0.4499512,1,1,1h22c0.5499878,0,1-0.4500122,1-1V3   C50,2.4500122,49.5499878,2,49,2z M34.3929443,13.0286865c-0.3306274,0.3149414-0.7642822,0.4724731-1.3014526,0.4724731   c-0.7858887,0-1.4834595-0.3123169-2.092041-0.9364624l0.5319214-0.737793   c0.5079346,0.5084839,1.0352173,0.7623901,1.5817871,0.7623901c0.2732544,0,0.4903564-0.0674438,0.6506958-0.2030029   c0.1609497-0.1351929,0.2410889-0.3149414,0.2410889-0.5385132c0-0.223877-0.0755005-0.3978882-0.2264404-0.5223389   c-0.151001-0.1240845-0.411377-0.2373657-0.7800903-0.3395386c-0.3692017-0.1022339-0.6501465-0.1962891-0.8414917-0.2819214   c-0.1919556-0.0856934-0.3622437-0.1972656-0.5108643-0.3355713c-0.2972412-0.2596436-0.4453125-0.6575317-0.4453125-1.1933594   s0.1685181-0.9489136,0.5067749-1.2388916c0.3376465-0.2900391,0.7560425-0.4349976,1.2546387-0.4349976   c0.3212891,0,0.6401978,0.0606689,0.9561768,0.1820679c0.3165894,0.1217041,0.5899048,0.2930298,0.8198853,0.513916   l-0.4529419,0.7374878c-0.1486816-0.15448-0.3499756-0.2816162-0.6039429-0.3810425   c-0.2539673-0.0994873-0.5043945-0.1494141-0.7513428-0.1494141s-0.4494629,0.0579834-0.6074219,0.1740112   c-0.1586304,0.116333-0.2376099,0.291687-0.2376099,0.5263672c0,0.2350464,0.0789795,0.4144287,0.2376099,0.5385132   c0.157959,0.1244507,0.4944458,0.258667,1.0100098,0.4019775c0.5149536,0.1439819,0.9035034,0.3456421,1.1651001,0.6049805   c0.2609863,0.2599487,0.3914795,0.642395,0.3914795,1.1478271C34.8891602,12.3033447,34.7241211,12.7137451,34.3929443,13.0286865z    M38.9228516,13.0286865c-0.3306274,0.3149414-0.7642212,0.4724731-1.3014526,0.4724731   c-0.7858887,0-1.4834595-0.3123169-2.092041-0.9364624l0.5319214-0.737793   c0.5079346,0.5084839,1.0352173,0.7623901,1.5817871,0.7623901c0.2732544,0,0.4903564-0.0674438,0.6506958-0.2030029   c0.1609497-0.1351929,0.2411499-0.3149414,0.2411499-0.5385132c0-0.223877-0.0755005-0.3978882-0.2265015-0.5223389   c-0.151001-0.1240845-0.411377-0.2373657-0.7800293-0.3395386c-0.3692627-0.1022339-0.6501465-0.1962891-0.8414917-0.2819214   c-0.1919556-0.0856934-0.3622437-0.1972656-0.5108643-0.3355713c-0.2973022-0.2596436-0.4453735-0.6575317-0.4453735-1.1933594   s0.1685791-0.9489136,0.5067749-1.2388916c0.3376465-0.2900391,0.7561035-0.4349976,1.2546387-0.4349976   c0.3212891,0,0.6401978,0.0606689,0.9562378,0.1820679c0.3165283,0.1217041,0.5898438,0.2930298,0.8198242,0.513916   l-0.4529419,0.7374878c-0.1486206-0.15448-0.3499146-0.2816162-0.6038818-0.3810425   c-0.2540283-0.0994873-0.5044556-0.1494141-0.7514038-0.1494141S37.010498,8.4621582,36.8524628,8.578186   c-0.1585541,0.116333-0.2375946,0.291687-0.2375946,0.5263672c0,0.2350464,0.0790405,0.4144287,0.2375946,0.5385132   c0.1580353,0.1244507,0.4945221,0.258667,1.010025,0.4019775c0.5149536,0.1439819,0.9035645,0.3456421,1.1651001,0.6049805   c0.2609863,0.2599487,0.3915405,0.642395,0.3915405,1.1478271C39.4191284,12.3033447,39.2540894,12.7137451,38.9228516,13.0286865z    M44.2948608,12.6473389c-0.4699097,0.5250244-1.1890869,0.7873535-2.1569824,0.7873535h-1.668396V7.6417236h1.725769   c0.9011841,0,1.5939941,0.2529297,2.0779419,0.7584229c0.4845581,0.5054932,0.7262573,1.2085571,0.7262573,2.1092529   C44.9994507,11.409729,44.7647705,12.1226196,44.2948608,12.6473389z"/><path d="M45.8499756,20H27c-1.6500244,0-3-1.3500366-3-3V7H11c-0.4400024,0-0.8300171,0.289978-0.960022,0.7199707L2.25,34   h47.5099487L45.8499756,20z"/></g></svg>