<?xml version="1.0" ?><!DOCTYPE svg  PUBLIC '-//W3C//DTD SVG 1.1//EN'  'http://www.w3.org/Graphics/SVG/1.1/DTD/svg11.dtd'><svg height="512px" style="enable-background:new 0 0 512 512;" version="1.1" viewBox="0 0 512 512" width="512px" xml:space="preserve" xmlns="http://www.w3.org/2000/svg" xmlns:xlink="http://www.w3.org/1999/xlink"><g id="B_-_186_x2C__globe_x2C__Business_x2C__communication_x2C__connection_x2C__global_x2C__world"><g><path d="M169.869,427.572c-2.25-2.285-5.381-3.684-8.854-3.684    c-3.473,0-6.604,1.398-8.853,3.684c-2.243,2.245-3.683,5.38-3.683,8.81c0,3.472,1.44,6.606,3.683,8.893    c2.25,2.244,5.38,3.642,8.853,3.642c3.388,0,6.44-1.312,8.722-3.473l0.132-0.169c2.243-2.286,3.683-5.421,3.683-8.893    C173.552,432.952,172.111,429.817,169.869,427.572 M124.004,229.893c-2.29-2.287-5.42-3.685-8.893-3.685    c-3.434,0-6.525,1.398-8.807,3.685c-2.289,2.244-3.684,5.378-3.684,8.85c0,3.431,1.395,6.564,3.684,8.852    c2.282,2.244,5.374,3.642,8.807,3.642c3.473,0,6.604-1.398,8.893-3.642c2.243-2.287,3.644-5.42,3.644-8.852    C127.648,235.271,126.247,232.137,124.004,229.893z M412.135,243.571c-2.281-2.244-5.419-3.642-8.846-3.642    c-3.434,0-6.61,1.397-8.854,3.642c-2.282,2.245-3.637,5.379-3.637,8.851c0,3.43,1.354,6.606,3.637,8.852    c2.243,2.243,5.42,3.642,8.854,3.642c3.427,0,6.564-1.398,8.846-3.642c2.251-2.245,3.645-5.422,3.645-8.852    C415.779,248.95,414.386,245.815,412.135,243.571z M259.473,432.316c15.208-1.694,29.014-14.652,39.387-34.81    c3.348-6.522,6.354-13.807,8.893-21.726c-16.096-2.88-32.184-4.362-48.279-4.573V432.316z M204.551,375.824    c2.539,7.876,5.505,15.16,8.847,21.683c10.379,20.157,24.185,33.115,39.386,34.81V371.25    C236.689,371.419,220.64,372.987,204.551,375.824z M317.361,306.839c-0.25-20.368-3.045-39.51-7.787-56.238    c-16.688,3.007-33.375,4.574-50.102,4.743v51.495H317.361z M259.473,364.56c16.773,0.169,33.5,1.736,50.186,4.786    c4.697-16.644,7.453-35.616,7.703-55.814h-57.889V364.56z M194.896,313.531c0.25,20.241,3.046,39.213,7.709,55.855    c16.681-3.006,33.453-4.615,50.18-4.827v-51.028H194.896z M202.684,250.517c-4.697,16.77-7.538,35.911-7.788,56.322h57.889    v-51.495C236.097,255.132,219.37,253.523,202.684,250.517z M252.784,188.053c-15.201,1.694-29.007,14.652-39.386,34.81    c-3.256,6.395-6.222,13.509-8.761,21.216c16.088,2.837,32.097,4.404,48.147,4.574V188.053z M298.859,222.863    c-10.373-20.158-24.179-33.116-39.387-34.81v60.6c16.05-0.169,32.059-1.652,48.154-4.49    C305.082,236.415,302.161,229.3,298.859,222.863z M161.14,233.154c12.326,3.981,24.606,7.241,36.886,9.698    c2.71-8.386,5.848-16.093,9.399-23.038c6.438-12.535,14.234-22.529,22.955-29.22c-23.416,4.998-44.377,16.77-60.729,33.117    C166.646,226.718,163.811,229.851,161.14,233.154z M133.87,306.839h54.33c0.256-20.792,3.091-40.357,7.919-57.55    c-13.083-2.668-26.211-6.141-39.294-10.545C142.973,258.012,134.547,281.473,133.87,306.839z M156.53,381.245    c13.122-4.404,26.296-7.92,39.464-10.588c-4.742-17.108-7.538-36.504-7.794-57.126h-54.33    C134.547,338.728,142.849,362.061,156.53,381.245z M230.381,429.775c-8.721-6.69-16.517-16.686-22.955-29.177    c-3.638-7.073-6.814-14.992-9.524-23.505c-12.327,2.457-24.731,5.718-37.057,9.783c2.755,3.388,5.675,6.69,8.807,9.781    C186.003,413.006,206.965,424.778,230.381,429.775z M351.452,386.835c-12.365-4.066-24.731-7.327-37.052-9.825    c-2.709,8.597-5.932,16.474-9.568,23.589c-6.44,12.491-14.234,22.486-22.955,29.177c23.461-4.997,44.383-16.77,60.729-33.117    C345.736,393.567,348.703,390.265,351.452,386.835z M378.387,313.531h-54.29c-0.296,20.58-3.092,39.976-7.835,57.042    c13.17,2.667,26.344,6.226,39.473,10.629C369.408,362.02,377.709,338.728,378.387,313.531z M355.478,238.786    c-13.128,4.405-26.211,7.919-39.3,10.544c4.827,17.194,7.623,36.758,7.919,57.508h54.29    C377.709,281.473,369.283,258.012,355.478,238.786z M410.531,300.699c0,4.065,6.688,4.065,6.688-0.043    c0-2.074-0.256-5.166-0.592-7.241c-1.02-5.081-7.367-2.88-6.649,0.72C410.273,296.168,410.445,298.623,410.531,300.699z     M409.939,326.913c-0.592,2.922,4.064,5.632,6.348,1.734c0.17-0.423,0.17-0.55,0.301-1.101l0.593-6.775    c0-4.955-6.696-4.319-6.696-0.423C410.359,322.551,410.149,324.71,409.939,326.913z M404.939,352.617    c-0.848,4.32,4.742,6.099,6.439,1.821c0.546-2.202,1.185-4.405,1.736-6.606c0.889-4.658-5.723-5.632-6.524-1.567    C406.039,348.383,405.447,350.5,404.939,352.617z M395.627,377.137c-1.868,4.574,4.57,6.521,6.051,2.879    c0.973-2.074,1.947-4.148,2.841-6.225c1.691-4.276-4.616-6.564-6.183-2.625L395.627,377.137z M382.281,399.709    c-2.579,3.43,2.795,7.453,5.465,3.938c1.355-1.863,2.625-3.812,3.895-5.717c2.374-4.023-3.513-7.199-5.67-3.643    C384.78,395.896,383.511,398.015,382.281,399.709z M365.344,419.696c-3.092,3.134,1.65,7.876,4.788,4.785    c1.604-1.651,3.132-3.261,4.696-4.954c1.19-1.186,1.145-3.388,0-4.531c-1.479-1.482-3.473-1.482-4.913,0    C368.436,416.604,366.91,418.173,365.344,419.696z M345.314,436.594c-3.729,2.795,0.508,8.003,3.855,5.463    c1.861-1.313,3.684-2.668,5.506-4.066c3.427-2.54-0.467-8.003-4.111-5.293C348.828,434.053,347.092,435.366,345.314,436.594z     M322.702,449.848c-3.815,1.525-1.526,7.793,2.881,6.056c2.032-0.974,4.104-1.989,6.098-3.091    c4.149-2.456,0.296-7.961-3.138-5.887C326.596,447.942,324.648,448.916,322.702,449.848z M298.135,459.08    c-4.275,1.736-2.492,7.326,1.869,6.479c2.157-0.635,4.359-1.312,6.518-1.99c4.578-1.863,1.525-7.834-2.118-6.394    C302.371,457.894,300.253,458.53,298.135,459.08z M272.391,464.035c-5.084,1.016-2.881,7.368,0.718,6.647    c2.288-0.21,4.532-0.55,6.82-0.847c4.657-0.932,2.921-7.409-1.02-6.648C276.799,463.568,274.51,463.823,272.391,464.035z     M246.18,464.543c-4.959,0-4.321,6.69-0.427,6.69c1.822,0,5.039,0.128,6.821,0.297c4.617,0,4.4-6.691,0.17-6.691    C251.047,464.67,247.917,464.543,246.18,464.543z M220.219,460.689c-4.572-0.932-5.591,5.717-1.526,6.521    c2.204,0.509,4.532,0.932,6.689,1.44c4.282,0.847,5.676-5.717,1.276-6.606C224.541,461.578,222.376,461.154,220.219,460.689z     M195.362,452.474c-4.282-1.694-6.564,4.573-2.67,6.183l6.354,2.541c1.737,0.679,3.684-0.296,4.275-1.778    c0.803-1.948-0.171-3.812-1.907-4.489L195.362,452.474z M175.88,442.438c-3.854-2.287-7.202,3.515-3.473,5.759l1.993,1.186    c2.414,1.44,5.584-0.677,4.992-3.557c-0.165-0.932-0.764-1.736-1.605-2.203L175.88,442.438z M146.406,419.188    c-3.137-3.134-7.833,1.608-4.742,4.743c1.566,1.608,3.256,3.176,4.914,4.743c3.006,3.007,7.788-1.695,4.571-4.913    C149.537,422.279,147.933,420.755,146.406,419.188z M129.595,399.116c-2.842-3.728-8.044,0.508-5.506,3.854    c1.23,1.821,2.71,3.854,4.065,5.546c2.625,3.432,7.959-0.592,5.295-4.106C132.133,402.672,130.779,400.894,129.595,399.116z     M116.341,376.46c-1.486-3.685-7.834-1.525-6.058,2.794c0.888,2.075,2.033,4.193,3.045,6.226c2.546,4.15,8.005,0.296,5.934-3.135    C118.242,380.397,117.269,378.449,116.341,376.46z M107.146,351.939c-0.717-3.641-7.281-3.218-6.479,1.694    c0.599,2.202,1.315,4.488,1.992,6.648c1.862,4.616,7.835,1.524,6.395-2.075C108.422,356.09,107.744,354.015,107.146,351.939z     M102.279,326.192c-1.06-5.124-7.414-2.88-6.69,0.678c0.211,2.244,0.506,4.53,0.849,6.775c0.974,4.743,7.406,2.965,6.643-0.974    C102.746,330.512,102.489,328.31,102.279,326.192z M101.811,299.979c0-4.996-6.688-4.318-6.688-0.466    c-0.171,2.245-0.296,4.574-0.342,6.86c0,4.531,6.696,4.405,6.696,0.127C101.562,304.341,101.64,302.139,101.811,299.979z     M105.711,274.02c0.928-4.616-5.722-5.59-6.525-1.525l-1.44,6.649c-0.335,1.652,0.678,3.218,1.947,3.727    c2.118,0.848,4.236-0.466,4.618-2.413L105.711,274.02z M111.809,254.412c1.69-4.107-4.664-6.437-6.268-2.414l-0.342,0.848    c-1.52,4.023,4.663,6.564,6.268,2.414L111.809,254.412z M129.509,221.338c2.539-3.43-2.795-7.453-5.505-3.854    c-1.269,1.863-2.585,3.727-3.815,5.675c-2.368,3.98,3.519,7.199,5.676,3.599C127.056,224.938,128.239,223.117,129.509,221.338z     M146.361,201.223c3.052-3.048-1.737-7.749-4.743-4.742c-1.605,1.609-3.216,3.303-4.742,4.997    c-2.96,2.964,1.697,7.749,4.953,4.488C143.315,204.357,144.795,202.791,146.361,201.223z M166.349,184.242    c3.644-2.753-0.545-8.004-3.933-5.462c-1.822,1.313-3.69,2.709-5.465,4.107c-3.473,2.583,0.506,8.005,4.104,5.293    C162.791,186.825,164.528,185.512,166.349,184.242z M188.877,170.86l0.599-0.382c2.874-2.202,0.592-7.284-3.559-5.632    c-2.032,0.932-4.064,2.033-6.097,3.091c-4.065,2.457-0.256,8.004,3.217,5.886C184.898,172.808,186.93,171.749,188.877,170.86z     M213.358,161.5c4.868-1.947,1.48-7.792-1.861-6.436c-2.164,0.592-4.407,1.271-6.525,2.032c-4.571,1.821-1.525,7.835,2.118,6.353    C209.162,162.729,211.241,162.094,213.358,161.5z M239.063,156.462c5.038-1.017,2.92-7.412-0.724-6.691    c-2.243,0.254-4.571,0.55-6.775,0.89c-4.742,0.932-2.959,7.411,1.02,6.648C234.702,156.927,236.945,156.673,239.063,156.462z     M265.273,155.785c4.915,0,4.361-6.692,0.429-6.692c-2.29-0.126-4.578-0.211-6.86-0.253c-4.493,0-4.407,6.691-0.086,6.691    L265.273,155.785z M291.235,159.51c4.618,0.932,5.631-5.717,1.526-6.521c-2.243-0.55-4.446-0.975-6.735-1.439    c-4.236-0.805-5.591,5.717-1.185,6.606C286.96,158.579,289.117,159.002,291.235,159.51z M316.178,167.599    c4.236,1.694,6.564-4.616,2.624-6.183c-2.118-0.89-4.229-1.737-6.394-2.541c-4.104-1.61-6.394,4.657-2.328,6.309    C312.112,165.947,314.145,166.752,316.178,167.599z M339.383,179.795c3.986,2.371,7.201-3.473,3.604-5.675    c-1.906-1.185-3.854-2.413-5.848-3.557c-2.367-1.439-5.544,0.678-4.952,3.557c0.171,0.932,0.718,1.737,1.612,2.287    C335.66,177.509,337.521,178.61,339.383,179.795z M360.22,195.76c2.881,2.922,7.71-1.737,4.657-4.828    c-1.65-1.566-3.559-3.175-5.334-4.658c-3.473-2.583-7.578,1.864-4.322,5.167C356.918,192.838,358.608,194.278,360.22,195.76z     M378.051,214.986c2.493,3.388,7.998-0.508,5.25-4.15c-1.395-1.821-2.836-3.557-4.361-5.294c-3.559-3.6-7.709,1.652-5.038,4.32    L378.051,214.986z M392.403,236.923c2.46,4.065,7.966,0.253,5.888-3.22c-1.099-1.99-2.244-3.98-3.389-5.928    c-2.289-3.811-8.004-0.338-5.762,3.43C390.285,233.069,391.305,234.975,392.403,236.923z M411.545,266.566    c-0.764-3.939-7.367-2.88-6.434,1.821c0.506,1.948,1.269,4.361,1.604,6.31c0.343,1.821,2.499,3.176,4.493,2.371    c1.439-0.55,2.414-2.075,2.031-3.854C412.898,271.14,412.096,268.6,411.545,266.566z M176.176,110.43    c1.526,1.058,1.862,3.134,0.803,4.658c-1.059,1.481-3.177,1.863-4.656,0.762l-7.071-5.04v40.865c0,1.821-1.525,3.346-3.387,3.346    c-1.822,0-3.302-1.524-3.302-3.346v-40.865l-7.117,5.04c-1.48,1.101-3.559,0.719-4.657-0.762c-1.059-1.524-0.677-3.6,0.848-4.658    l12.109-8.725c0.592-0.465,1.355-0.762,2.119-0.762c0.849,0,1.604,0.297,2.157,0.762L176.176,110.43z M268.326,49.956    c1.48,1.06,1.862,3.134,0.764,4.659c-1.06,1.483-3.138,1.863-4.656,0.763l-7.078-5.04v65.724c0,1.863-1.48,3.346-3.341,3.346    c-1.869,0-3.349-1.482-3.349-3.346V50.337l-7.07,5.04c-1.526,1.101-3.598,0.72-4.657-0.763c-1.059-1.524-0.724-3.599,0.763-4.659    l12.194-8.723l0.086-0.084h0.04l0.171-0.128l0,0l0.039-0.042l0.171-0.084l0,0v-0.043c0.171-0.084,0.342-0.126,0.506-0.169l0,0    c0.342-0.127,0.724-0.212,1.105-0.212c0.802,0,1.519,0.297,2.118,0.763L268.326,49.956z M363.949,88.621    c1.479,1.058,1.815,3.176,0.764,4.7c-1.105,1.483-3.138,1.821-4.664,0.763l-7.07-5.039v72.118c0,1.821-1.526,3.346-3.349,3.346    c-1.861,0-3.387-1.524-3.387-3.346V89.044l-7.025,5.039c-1.526,1.059-3.604,0.72-4.663-0.763c-1.099-1.523-0.756-3.642,0.763-4.7    l12.201-8.724l0.079-0.042l0,0l0.171-0.127l0,0l0.086-0.042l0.171-0.085l0,0v-0.042c0.17-0.085,0.336-0.127,0.506-0.211l0,0    c0.343-0.128,0.678-0.169,1.099-0.169c0.763,0,1.526,0.295,2.118,0.719L363.949,88.621z M281.877,190.594    c8.721,6.691,16.515,16.686,22.955,29.22c3.558,6.945,6.688,14.695,9.398,23.08c12.279-2.456,24.606-5.717,36.926-9.74    c-2.711-3.303-5.506-6.436-8.551-9.443C326.26,207.363,305.338,195.591,281.877,190.594z" style="fill-rule:evenodd;clip-rule:evenodd;"/></g></g><g id="Layer_1"/></svg>