<?xml version="1.0" ?><svg viewBox="0 0 32 32" xmlns="http://www.w3.org/2000/svg"><defs><style>.cls-1{fill:none;stroke:#000;stroke-linejoin:round;stroke-width:2px;}</style></defs><title/><g data-name="128-Server" id="_128-Server"><line class="cls-1" x1="5" x2="7" y1="6" y2="6"/><line class="cls-1" x1="9" x2="11" y1="6" y2="6"/><line class="cls-1" x1="13" x2="18" y1="6" y2="6"/><polyline class="cls-1" points="1 11 1 1 18 1"/><polyline class="cls-1" points="31 15 31 21 1 21 1 11 18 11"/><rect class="cls-1" height="10" width="30" x="1" y="21"/><line class="cls-1" x1="5" x2="23" y1="16" y2="16"/><line class="cls-1" x1="25" x2="27" y1="16" y2="16"/><line class="cls-1" x1="25" x2="27" y1="26" y2="26"/><line class="cls-1" x1="21" x2="23" y1="26" y2="26"/><line class="cls-1" x1="17" x2="19" y1="26" y2="26"/><line class="cls-1" x1="5" x2="15" y1="26" y2="26"/><polyline class="cls-1" points="22 5 26 1 30 5"/><line class="cls-1" x1="26" x2="26" y1="1" y2="12"/></g></svg>